<mxfile host="app.diagrams.net" modified="2021-10-16T15:51:48.848Z" agent="5.0 (Windows NT 10.0; Win64; x64) AppleWebKit/537.36 (KHTML, like Gecko) Chrome/93.0.4577.82 Safari/537.36" etag="WxUDG5YWSA_W6VgyfoKH" version="15.5.2" type="github">
  <diagram id="TZ_N2xkVkbHxLbpI2skU" name="Page-1">
    <mxGraphModel dx="735" dy="2113" grid="1" gridSize="10" guides="1" tooltips="1" connect="1" arrows="1" fold="1" page="1" pageScale="1" pageWidth="827" pageHeight="1169" math="0" shadow="0">
      <root>
        <mxCell id="0" />
        <mxCell id="1" parent="0" />
        <mxCell id="Ax5s6Uh-GhOUSh6fd2my-10" value="" style="edgeStyle=orthogonalEdgeStyle;rounded=0;orthogonalLoop=1;jettySize=auto;html=1;" edge="1" parent="1" source="5Hk06CbkOAOg1ommJOfu-2" target="5Hk06CbkOAOg1ommJOfu-25">
          <mxGeometry relative="1" as="geometry" />
        </mxCell>
        <mxCell id="5Hk06CbkOAOg1ommJOfu-2" value="" style="rounded=1;whiteSpace=wrap;html=1;strokeColor=#6c8ebf;fillColor=#dae8fc;opacity=50;fontStyle=1" parent="1" vertex="1">
          <mxGeometry x="1697.25" y="60" width="610" height="90" as="geometry" />
        </mxCell>
        <mxCell id="5Hk06CbkOAOg1ommJOfu-4" value="" style="rounded=1;whiteSpace=wrap;html=1;strokeColor=#666666;fontColor=#333333;fillColor=#f5f5f5;opacity=50;fontStyle=1" parent="1" vertex="1">
          <mxGeometry x="1696" y="178.75" width="612.5" height="90" as="geometry" />
        </mxCell>
        <mxCell id="5Hk06CbkOAOg1ommJOfu-5" value="&lt;div style=&quot;text-align: justify&quot;&gt;&lt;span style=&quot;font-size: 14px&quot;&gt;setOnExitAnimationListener&lt;/span&gt;&lt;/div&gt;" style="rounded=1;whiteSpace=wrap;html=1;fillColor=#dae8fc;strokeColor=#6c8ebf;fontStyle=1" parent="1" vertex="1">
          <mxGeometry x="1010" y="-230" width="203" height="60" as="geometry" />
        </mxCell>
        <mxCell id="5Hk06CbkOAOg1ommJOfu-8" value="Android 12?" style="rhombus;whiteSpace=wrap;html=1;fillColor=#f8cecc;strokeColor=#b85450;fontStyle=1" parent="1" vertex="1">
          <mxGeometry x="1270" y="-240" width="110" height="80" as="geometry" />
        </mxCell>
        <mxCell id="5Hk06CbkOAOg1ommJOfu-9" value="" style="endArrow=classic;html=1;fontStyle=1;entryX=0;entryY=0.5;entryDx=0;entryDy=0;exitX=1;exitY=0.5;exitDx=0;exitDy=0;" parent="1" source="5Hk06CbkOAOg1ommJOfu-5" target="5Hk06CbkOAOg1ommJOfu-8" edge="1">
          <mxGeometry width="50" height="50" relative="1" as="geometry">
            <mxPoint x="1210" y="-190" as="sourcePoint" />
            <mxPoint x="1320" y="-230" as="targetPoint" />
          </mxGeometry>
        </mxCell>
        <mxCell id="5Hk06CbkOAOg1ommJOfu-10" value="Y" style="text;html=1;strokeColor=none;fillColor=none;align=center;verticalAlign=middle;whiteSpace=wrap;rounded=0;fontStyle=1" parent="1" vertex="1">
          <mxGeometry x="1614" y="-40" width="40" height="20" as="geometry" />
        </mxCell>
        <mxCell id="5Hk06CbkOAOg1ommJOfu-11" value="N" style="text;html=1;strokeColor=none;fillColor=none;align=center;verticalAlign=middle;whiteSpace=wrap;rounded=0;fontStyle=1" parent="1" vertex="1">
          <mxGeometry x="1330" y="-136" width="40" height="20" as="geometry" />
        </mxCell>
        <mxCell id="Ax5s6Uh-GhOUSh6fd2my-5" value="" style="edgeStyle=orthogonalEdgeStyle;rounded=0;orthogonalLoop=1;jettySize=auto;html=1;" edge="1" parent="1" source="5Hk06CbkOAOg1ommJOfu-14" target="5Hk06CbkOAOg1ommJOfu-15">
          <mxGeometry relative="1" as="geometry" />
        </mxCell>
        <mxCell id="5Hk06CbkOAOg1ommJOfu-14" value="12 专属的定制入口&lt;br&gt;Activity#getSplashScreen" style="rounded=1;whiteSpace=wrap;html=1;fillColor=#d5e8d4;strokeColor=#82b366;fontStyle=1" parent="1" vertex="1">
          <mxGeometry x="1416.5" y="-330" width="185" height="60" as="geometry" />
        </mxCell>
        <mxCell id="Ax5s6Uh-GhOUSh6fd2my-6" value="" style="edgeStyle=orthogonalEdgeStyle;rounded=0;orthogonalLoop=1;jettySize=auto;html=1;" edge="1" parent="1" source="5Hk06CbkOAOg1ommJOfu-15" target="5Hk06CbkOAOg1ommJOfu-19">
          <mxGeometry relative="1" as="geometry" />
        </mxCell>
        <mxCell id="5Hk06CbkOAOg1ommJOfu-15" value="12 专属的退场监听设置&lt;br&gt;#setOnExitAnimationListener" style="rounded=1;whiteSpace=wrap;html=1;fillColor=#d5e8d4;strokeColor=#82b366;fontStyle=1" parent="1" vertex="1">
          <mxGeometry x="1414" y="-230" width="190.5" height="60" as="geometry" />
        </mxCell>
        <mxCell id="5Hk06CbkOAOg1ommJOfu-16" value="" style="endArrow=classic;html=1;fontStyle=1;exitX=0.5;exitY=0;exitDx=0;exitDy=0;entryX=0;entryY=0.5;entryDx=0;entryDy=0;" parent="1" source="5Hk06CbkOAOg1ommJOfu-8" target="5Hk06CbkOAOg1ommJOfu-14" edge="1">
          <mxGeometry width="50" height="50" relative="1" as="geometry">
            <mxPoint x="1335.5" y="61.75" as="sourcePoint" />
            <mxPoint x="1545.5" y="116.75" as="targetPoint" />
            <Array as="points">
              <mxPoint x="1325.5" y="-300" />
            </Array>
          </mxGeometry>
        </mxCell>
        <mxCell id="5Hk06CbkOAOg1ommJOfu-19" value="&lt;span style=&quot;color: rgb(0 , 0 , 0)&quot;&gt;创建统一视图容器&lt;br&gt;SplashScreenViewProvider&lt;br&gt;&lt;/span&gt;" style="rounded=1;whiteSpace=wrap;html=1;fillColor=#dae8fc;strokeColor=#6c8ebf;fontStyle=1" parent="1" vertex="1">
          <mxGeometry x="1417" y="-136" width="185" height="60" as="geometry" />
        </mxCell>
        <mxCell id="5Hk06CbkOAOg1ommJOfu-21" value="Android 12?" style="rhombus;whiteSpace=wrap;html=1;fillColor=#f8cecc;strokeColor=#b85450;fontStyle=1" parent="1" vertex="1">
          <mxGeometry x="1550" y="79" width="110" height="80" as="geometry" />
        </mxCell>
        <mxCell id="5Hk06CbkOAOg1ommJOfu-22" value="N" style="text;html=1;strokeColor=none;fillColor=none;align=center;verticalAlign=middle;whiteSpace=wrap;rounded=0;fontStyle=1" parent="1" vertex="1">
          <mxGeometry x="1621" y="196.75" width="40" height="20" as="geometry" />
        </mxCell>
        <mxCell id="5Hk06CbkOAOg1ommJOfu-25" value="OnExitAnimationListener" style="rounded=1;whiteSpace=wrap;html=1;fillColor=#dae8fc;strokeColor=#6c8ebf;fontStyle=1" parent="1" vertex="1">
          <mxGeometry x="1910.25" y="-40" width="185" height="60" as="geometry" />
        </mxCell>
        <mxCell id="5Hk06CbkOAOg1ommJOfu-26" value="Y" style="text;html=1;strokeColor=none;fillColor=none;align=center;verticalAlign=middle;whiteSpace=wrap;rounded=0;fontStyle=1" parent="1" vertex="1">
          <mxGeometry x="1330" y="-330" width="40" height="20" as="geometry" />
        </mxCell>
        <mxCell id="5Hk06CbkOAOg1ommJOfu-28" value="" style="edgeStyle=orthogonalEdgeStyle;rounded=0;orthogonalLoop=1;jettySize=auto;html=1;" parent="1" source="5Hk06CbkOAOg1ommJOfu-29" target="5Hk06CbkOAOg1ommJOfu-39" edge="1">
          <mxGeometry relative="1" as="geometry" />
        </mxCell>
        <mxCell id="5Hk06CbkOAOg1ommJOfu-29" value="新建布局到ContentView&lt;br&gt;inflate &amp;amp; addView" style="rounded=1;whiteSpace=wrap;html=1;fillColor=#f5f5f5;strokeColor=#666666;fontColor=#333333;fontStyle=1" parent="1" vertex="1">
          <mxGeometry x="1743.25" y="193.75" width="156.25" height="60" as="geometry" />
        </mxCell>
        <mxCell id="5Hk06CbkOAOg1ommJOfu-30" value="" style="edgeStyle=orthogonalEdgeStyle;rounded=0;orthogonalLoop=1;jettySize=auto;html=1;fontStyle=1" parent="1" source="5Hk06CbkOAOg1ommJOfu-31" target="5Hk06CbkOAOg1ommJOfu-33" edge="1">
          <mxGeometry relative="1" as="geometry" />
        </mxCell>
        <mxCell id="5Hk06CbkOAOg1ommJOfu-31" value="调节 Icon 位置&lt;br&gt;adjustInsets" style="rounded=1;whiteSpace=wrap;html=1;fillColor=#dae8fc;strokeColor=#6c8ebf;fontStyle=1" parent="1" vertex="1">
          <mxGeometry x="1717.25" y="75" width="124" height="60" as="geometry" />
        </mxCell>
        <mxCell id="5Hk06CbkOAOg1ommJOfu-32" value="" style="edgeStyle=orthogonalEdgeStyle;rounded=0;orthogonalLoop=1;jettySize=auto;html=1;fontStyle=1" parent="1" source="5Hk06CbkOAOg1ommJOfu-33" target="5Hk06CbkOAOg1ommJOfu-34" edge="1">
          <mxGeometry relative="1" as="geometry" />
        </mxCell>
        <mxCell id="5Hk06CbkOAOg1ommJOfu-33" value="判断延长条件&lt;br&gt;KeepOnScreenCondition" style="rounded=1;whiteSpace=wrap;html=1;fillColor=#dae8fc;strokeColor=#6c8ebf;fontStyle=1" parent="1" vertex="1">
          <mxGeometry x="1877.25" y="75" width="185" height="60" as="geometry" />
        </mxCell>
        <mxCell id="5Hk06CbkOAOg1ommJOfu-34" value="手动执行退场回调&lt;br&gt;dispatchOnExitAnimation" style="rounded=1;whiteSpace=wrap;html=1;fillColor=#dae8fc;strokeColor=#6c8ebf;fontStyle=1" parent="1" vertex="1">
          <mxGeometry x="2097.25" y="75" width="185" height="60" as="geometry" />
        </mxCell>
        <mxCell id="5Hk06CbkOAOg1ommJOfu-35" value="" style="endArrow=classic;html=1;fontStyle=1;exitX=0.5;exitY=0;exitDx=0;exitDy=0;entryX=0;entryY=0.5;entryDx=0;entryDy=0;" parent="1" source="5Hk06CbkOAOg1ommJOfu-21" target="5Hk06CbkOAOg1ommJOfu-25" edge="1">
          <mxGeometry width="50" height="50" relative="1" as="geometry">
            <mxPoint x="1683.08" y="435.25" as="sourcePoint" />
            <mxPoint x="2214" y="424.25" as="targetPoint" />
            <Array as="points">
              <mxPoint x="1605" y="-10" />
            </Array>
          </mxGeometry>
        </mxCell>
        <mxCell id="5Hk06CbkOAOg1ommJOfu-36" value="" style="endArrow=classic;html=1;fontStyle=1;entryX=0;entryY=0.5;entryDx=0;entryDy=0;exitX=0.5;exitY=1;exitDx=0;exitDy=0;" parent="1" source="5Hk06CbkOAOg1ommJOfu-21" target="5Hk06CbkOAOg1ommJOfu-4" edge="1">
          <mxGeometry width="50" height="50" relative="1" as="geometry">
            <mxPoint x="1678.5" y="275.25" as="sourcePoint" />
            <mxPoint x="1738.5" y="195.25" as="targetPoint" />
            <Array as="points">
              <mxPoint x="1606" y="224" />
              <mxPoint x="1664" y="224" />
            </Array>
          </mxGeometry>
        </mxCell>
        <mxCell id="5Hk06CbkOAOg1ommJOfu-37" value="监听布局时机&lt;br&gt;LayoutChangeListener" style="rounded=1;whiteSpace=wrap;html=1;fillColor=#f5f5f5;strokeColor=#666666;fontColor=#333333;fontStyle=1" parent="1" vertex="1">
          <mxGeometry x="2097" y="193.75" width="146.25" height="60" as="geometry" />
        </mxCell>
        <mxCell id="5Hk06CbkOAOg1ommJOfu-38" value="" style="edgeStyle=orthogonalEdgeStyle;rounded=0;orthogonalLoop=1;jettySize=auto;html=1;" parent="1" source="5Hk06CbkOAOg1ommJOfu-39" target="5Hk06CbkOAOg1ommJOfu-37" edge="1">
          <mxGeometry relative="1" as="geometry" />
        </mxCell>
        <mxCell id="5Hk06CbkOAOg1ommJOfu-39" value="设置缓存好的&lt;br&gt;Background &amp;amp; Icon" style="rounded=1;whiteSpace=wrap;html=1;fillColor=#f5f5f5;strokeColor=#666666;fontColor=#333333;fontStyle=1" parent="1" vertex="1">
          <mxGeometry x="1943.25" y="193.75" width="120" height="60" as="geometry" />
        </mxCell>
        <mxCell id="5Hk06CbkOAOg1ommJOfu-44" value="&lt;font&gt;※ 12 由系统执行退场回调&lt;/font&gt;" style="rounded=1;whiteSpace=wrap;html=1;fontStyle=1;fillColor=none;strokeColor=none;fontColor=#4D4D4D;" parent="1" vertex="1">
          <mxGeometry x="1689.25" y="-60" width="180" height="60" as="geometry" />
        </mxCell>
        <mxCell id="5Hk06CbkOAOg1ommJOfu-45" value="新建布局到ContentView&lt;br&gt;inflate &amp;amp; addView" style="rounded=1;whiteSpace=wrap;html=1;fillColor=#f5f5f5;strokeColor=#666666;fontColor=#333333;fontStyle=1" parent="1" vertex="1">
          <mxGeometry x="1743.25" y="193.75" width="156.25" height="60" as="geometry" />
        </mxCell>
        <mxCell id="5Hk06CbkOAOg1ommJOfu-46" value="设置缓存好的&lt;br&gt;Background &amp;amp; Icon" style="rounded=1;whiteSpace=wrap;html=1;fillColor=#f5f5f5;strokeColor=#666666;fontColor=#333333;fontStyle=1" parent="1" vertex="1">
          <mxGeometry x="1943.25" y="193.75" width="120" height="60" as="geometry" />
        </mxCell>
        <mxCell id="Ax5s6Uh-GhOUSh6fd2my-4" value="" style="endArrow=classic;html=1;fontStyle=1;entryX=0;entryY=0.5;entryDx=0;entryDy=0;exitX=0.5;exitY=1;exitDx=0;exitDy=0;" edge="1" parent="1" source="5Hk06CbkOAOg1ommJOfu-8" target="5Hk06CbkOAOg1ommJOfu-19">
          <mxGeometry width="50" height="50" relative="1" as="geometry">
            <mxPoint x="1355.5" y="70.75" as="sourcePoint" />
            <mxPoint x="1412.5" y="70.75" as="targetPoint" />
            <Array as="points">
              <mxPoint x="1325.5" y="-106" />
              <mxPoint x="1405.5" y="-106" />
            </Array>
          </mxGeometry>
        </mxCell>
        <mxCell id="Ax5s6Uh-GhOUSh6fd2my-7" value="" style="endArrow=classic;html=1;fontStyle=1;entryX=0;entryY=0.5;entryDx=0;entryDy=0;exitX=0.5;exitY=1;exitDx=0;exitDy=0;" edge="1" parent="1" source="5Hk06CbkOAOg1ommJOfu-19" target="5Hk06CbkOAOg1ommJOfu-21">
          <mxGeometry width="50" height="50" relative="1" as="geometry">
            <mxPoint x="1340" y="3.75" as="sourcePoint" />
            <mxPoint x="1432" y="57.75" as="targetPoint" />
            <Array as="points">
              <mxPoint x="1510" y="50" />
              <mxPoint x="1510" y="80" />
              <mxPoint x="1510" y="119" />
            </Array>
          </mxGeometry>
        </mxCell>
        <mxCell id="Ax5s6Uh-GhOUSh6fd2my-13" value="" style="endArrow=classic;html=1;rounded=0;exitX=0.5;exitY=0;exitDx=0;exitDy=0;entryX=0.5;entryY=1;entryDx=0;entryDy=0;" edge="1" parent="1" source="5Hk06CbkOAOg1ommJOfu-4" target="5Hk06CbkOAOg1ommJOfu-2">
          <mxGeometry width="50" height="50" relative="1" as="geometry">
            <mxPoint x="1901" y="210" as="sourcePoint" />
            <mxPoint x="1951" y="160" as="targetPoint" />
          </mxGeometry>
        </mxCell>
      </root>
    </mxGraphModel>
  </diagram>
</mxfile>
